<?xml version="1.0" encoding="utf-8" standalone="no"?>
<!DOCTYPE svg PUBLIC "-//W3C//DTD SVG 1.1//EN"
  "http://www.w3.org/Graphics/SVG/1.1/DTD/svg11.dtd">
<svg height="648pt" version="1.1" viewBox="0 0 1152 648" width="1152pt" xmlns="http://www.w3.org/2000/svg" xmlns:xlink="http://www.w3.org/1999/xlink">
 <metadata>
  <rdf:RDF xmlns:cc="http://creativecommons.org/ns#" xmlns:dc="http://purl.org/dc/elements/1.1/" xmlns:rdf="http://www.w3.org/1999/02/22-rdf-syntax-ns#">
   <cc:Work>
    <dc:type rdf:resource="http://purl.org/dc/dcmitype/StillImage"/>
    <dc:date>2021-04-13T22:14:12.925030</dc:date>
    <dc:format>image/svg+xml</dc:format>
    <dc:creator>
     <cc:Agent>
      <dc:title>Matplotlib v3.4.1, https://matplotlib.org/</dc:title>
     </cc:Agent>
    </dc:creator>
   </cc:Work>
  </rdf:RDF>
 </metadata>
 <defs>
  <style type="text/css">*{stroke-linecap:butt;stroke-linejoin:round;}</style>
 </defs>
 <g id="figure_1">
  <g id="patch_1">
   <path d="M 0 648 
L 1152 648 
L 1152 0 
L 0 0 
z
" style="fill:#ffffff;"/>
  </g>
  <g id="axes_1">
   <g id="patch_2">
    <path d="M 144 576.72 
L 1036.8 576.72 
L 1036.8 77.76 
L 144 77.76 
z
" style="fill:#ffffff;"/>
   </g>
   <g id="matplotlib.axis_1">
    <g id="xtick_1">
     <g id="line2d_1">
      <defs>
       <path d="M 0 0 
L 0 3.5 
" id="m022209b7a3" style="stroke:#000000;stroke-width:0.8;"/>
      </defs>
      <g>
       <use style="stroke:#000000;stroke-width:0.8;" x="176.299814" xlink:href="#m022209b7a3" y="576.72"/>
      </g>
     </g>
     <g id="text_1">
      <!-- 0 -->
      <g transform="translate(173.118564 591.318438)scale(0.1 -0.1)">
       <defs>
        <path d="M 2034 4250 
Q 1547 4250 1301 3770 
Q 1056 3291 1056 2328 
Q 1056 1369 1301 889 
Q 1547 409 2034 409 
Q 2525 409 2770 889 
Q 3016 1369 3016 2328 
Q 3016 3291 2770 3770 
Q 2525 4250 2034 4250 
z
M 2034 4750 
Q 2819 4750 3233 4129 
Q 3647 3509 3647 2328 
Q 3647 1150 3233 529 
Q 2819 -91 2034 -91 
Q 1250 -91 836 529 
Q 422 1150 422 2328 
Q 422 3509 836 4129 
Q 1250 4750 2034 4750 
z
" id="DejaVuSans-30" transform="scale(0.015625)"/>
       </defs>
       <use xlink:href="#DejaVuSans-30"/>
      </g>
     </g>
    </g>
    <g id="xtick_2">
     <g id="line2d_2">
      <g>
       <use style="stroke:#000000;stroke-width:0.8;" x="341.939889" xlink:href="#m022209b7a3" y="576.72"/>
      </g>
     </g>
     <g id="text_2">
      <!-- 20 -->
      <g transform="translate(335.577389 591.318438)scale(0.1 -0.1)">
       <defs>
        <path d="M 1228 531 
L 3431 531 
L 3431 0 
L 469 0 
L 469 531 
Q 828 903 1448 1529 
Q 2069 2156 2228 2338 
Q 2531 2678 2651 2914 
Q 2772 3150 2772 3378 
Q 2772 3750 2511 3984 
Q 2250 4219 1831 4219 
Q 1534 4219 1204 4116 
Q 875 4013 500 3803 
L 500 4441 
Q 881 4594 1212 4672 
Q 1544 4750 1819 4750 
Q 2544 4750 2975 4387 
Q 3406 4025 3406 3419 
Q 3406 3131 3298 2873 
Q 3191 2616 2906 2266 
Q 2828 2175 2409 1742 
Q 1991 1309 1228 531 
z
" id="DejaVuSans-32" transform="scale(0.015625)"/>
       </defs>
       <use xlink:href="#DejaVuSans-32"/>
       <use x="63.623047" xlink:href="#DejaVuSans-30"/>
      </g>
     </g>
    </g>
    <g id="xtick_3">
     <g id="line2d_3">
      <g>
       <use style="stroke:#000000;stroke-width:0.8;" x="507.579963" xlink:href="#m022209b7a3" y="576.72"/>
      </g>
     </g>
     <g id="text_3">
      <!-- 40 -->
      <g transform="translate(501.217463 591.318438)scale(0.1 -0.1)">
       <defs>
        <path d="M 2419 4116 
L 825 1625 
L 2419 1625 
L 2419 4116 
z
M 2253 4666 
L 3047 4666 
L 3047 1625 
L 3713 1625 
L 3713 1100 
L 3047 1100 
L 3047 0 
L 2419 0 
L 2419 1100 
L 313 1100 
L 313 1709 
L 2253 4666 
z
" id="DejaVuSans-34" transform="scale(0.015625)"/>
       </defs>
       <use xlink:href="#DejaVuSans-34"/>
       <use x="63.623047" xlink:href="#DejaVuSans-30"/>
      </g>
     </g>
    </g>
    <g id="xtick_4">
     <g id="line2d_4">
      <g>
       <use style="stroke:#000000;stroke-width:0.8;" x="673.220037" xlink:href="#m022209b7a3" y="576.72"/>
      </g>
     </g>
     <g id="text_4">
      <!-- 60 -->
      <g transform="translate(666.857537 591.318438)scale(0.1 -0.1)">
       <defs>
        <path d="M 2113 2584 
Q 1688 2584 1439 2293 
Q 1191 2003 1191 1497 
Q 1191 994 1439 701 
Q 1688 409 2113 409 
Q 2538 409 2786 701 
Q 3034 994 3034 1497 
Q 3034 2003 2786 2293 
Q 2538 2584 2113 2584 
z
M 3366 4563 
L 3366 3988 
Q 3128 4100 2886 4159 
Q 2644 4219 2406 4219 
Q 1781 4219 1451 3797 
Q 1122 3375 1075 2522 
Q 1259 2794 1537 2939 
Q 1816 3084 2150 3084 
Q 2853 3084 3261 2657 
Q 3669 2231 3669 1497 
Q 3669 778 3244 343 
Q 2819 -91 2113 -91 
Q 1303 -91 875 529 
Q 447 1150 447 2328 
Q 447 3434 972 4092 
Q 1497 4750 2381 4750 
Q 2619 4750 2861 4703 
Q 3103 4656 3366 4563 
z
" id="DejaVuSans-36" transform="scale(0.015625)"/>
       </defs>
       <use xlink:href="#DejaVuSans-36"/>
       <use x="63.623047" xlink:href="#DejaVuSans-30"/>
      </g>
     </g>
    </g>
    <g id="xtick_5">
     <g id="line2d_5">
      <g>
       <use style="stroke:#000000;stroke-width:0.8;" x="838.860111" xlink:href="#m022209b7a3" y="576.72"/>
      </g>
     </g>
     <g id="text_5">
      <!-- 80 -->
      <g transform="translate(832.497611 591.318438)scale(0.1 -0.1)">
       <defs>
        <path d="M 2034 2216 
Q 1584 2216 1326 1975 
Q 1069 1734 1069 1313 
Q 1069 891 1326 650 
Q 1584 409 2034 409 
Q 2484 409 2743 651 
Q 3003 894 3003 1313 
Q 3003 1734 2745 1975 
Q 2488 2216 2034 2216 
z
M 1403 2484 
Q 997 2584 770 2862 
Q 544 3141 544 3541 
Q 544 4100 942 4425 
Q 1341 4750 2034 4750 
Q 2731 4750 3128 4425 
Q 3525 4100 3525 3541 
Q 3525 3141 3298 2862 
Q 3072 2584 2669 2484 
Q 3125 2378 3379 2068 
Q 3634 1759 3634 1313 
Q 3634 634 3220 271 
Q 2806 -91 2034 -91 
Q 1263 -91 848 271 
Q 434 634 434 1313 
Q 434 1759 690 2068 
Q 947 2378 1403 2484 
z
M 1172 3481 
Q 1172 3119 1398 2916 
Q 1625 2713 2034 2713 
Q 2441 2713 2670 2916 
Q 2900 3119 2900 3481 
Q 2900 3844 2670 4047 
Q 2441 4250 2034 4250 
Q 1625 4250 1398 4047 
Q 1172 3844 1172 3481 
z
" id="DejaVuSans-38" transform="scale(0.015625)"/>
       </defs>
       <use xlink:href="#DejaVuSans-38"/>
       <use x="63.623047" xlink:href="#DejaVuSans-30"/>
      </g>
     </g>
    </g>
    <g id="xtick_6">
     <g id="line2d_6">
      <g>
       <use style="stroke:#000000;stroke-width:0.8;" x="1004.500186" xlink:href="#m022209b7a3" y="576.72"/>
      </g>
     </g>
     <g id="text_6">
      <!-- 100 -->
      <g transform="translate(994.956436 591.318438)scale(0.1 -0.1)">
       <defs>
        <path d="M 794 531 
L 1825 531 
L 1825 4091 
L 703 3866 
L 703 4441 
L 1819 4666 
L 2450 4666 
L 2450 531 
L 3481 531 
L 3481 0 
L 794 0 
L 794 531 
z
" id="DejaVuSans-31" transform="scale(0.015625)"/>
       </defs>
       <use xlink:href="#DejaVuSans-31"/>
       <use x="63.623047" xlink:href="#DejaVuSans-30"/>
       <use x="127.246094" xlink:href="#DejaVuSans-30"/>
      </g>
     </g>
    </g>
    <g id="text_7">
     <!-- Data length (bytes) -->
     <g transform="translate(541.669531 604.996562)scale(0.1 -0.1)">
      <defs>
       <path d="M 1259 4147 
L 1259 519 
L 2022 519 
Q 2988 519 3436 956 
Q 3884 1394 3884 2338 
Q 3884 3275 3436 3711 
Q 2988 4147 2022 4147 
L 1259 4147 
z
M 628 4666 
L 1925 4666 
Q 3281 4666 3915 4102 
Q 4550 3538 4550 2338 
Q 4550 1131 3912 565 
Q 3275 0 1925 0 
L 628 0 
L 628 4666 
z
" id="DejaVuSans-44" transform="scale(0.015625)"/>
       <path d="M 2194 1759 
Q 1497 1759 1228 1600 
Q 959 1441 959 1056 
Q 959 750 1161 570 
Q 1363 391 1709 391 
Q 2188 391 2477 730 
Q 2766 1069 2766 1631 
L 2766 1759 
L 2194 1759 
z
M 3341 1997 
L 3341 0 
L 2766 0 
L 2766 531 
Q 2569 213 2275 61 
Q 1981 -91 1556 -91 
Q 1019 -91 701 211 
Q 384 513 384 1019 
Q 384 1609 779 1909 
Q 1175 2209 1959 2209 
L 2766 2209 
L 2766 2266 
Q 2766 2663 2505 2880 
Q 2244 3097 1772 3097 
Q 1472 3097 1187 3025 
Q 903 2953 641 2809 
L 641 3341 
Q 956 3463 1253 3523 
Q 1550 3584 1831 3584 
Q 2591 3584 2966 3190 
Q 3341 2797 3341 1997 
z
" id="DejaVuSans-61" transform="scale(0.015625)"/>
       <path d="M 1172 4494 
L 1172 3500 
L 2356 3500 
L 2356 3053 
L 1172 3053 
L 1172 1153 
Q 1172 725 1289 603 
Q 1406 481 1766 481 
L 2356 481 
L 2356 0 
L 1766 0 
Q 1100 0 847 248 
Q 594 497 594 1153 
L 594 3053 
L 172 3053 
L 172 3500 
L 594 3500 
L 594 4494 
L 1172 4494 
z
" id="DejaVuSans-74" transform="scale(0.015625)"/>
       <path id="DejaVuSans-20" transform="scale(0.015625)"/>
       <path d="M 603 4863 
L 1178 4863 
L 1178 0 
L 603 0 
L 603 4863 
z
" id="DejaVuSans-6c" transform="scale(0.015625)"/>
       <path d="M 3597 1894 
L 3597 1613 
L 953 1613 
Q 991 1019 1311 708 
Q 1631 397 2203 397 
Q 2534 397 2845 478 
Q 3156 559 3463 722 
L 3463 178 
Q 3153 47 2828 -22 
Q 2503 -91 2169 -91 
Q 1331 -91 842 396 
Q 353 884 353 1716 
Q 353 2575 817 3079 
Q 1281 3584 2069 3584 
Q 2775 3584 3186 3129 
Q 3597 2675 3597 1894 
z
M 3022 2063 
Q 3016 2534 2758 2815 
Q 2500 3097 2075 3097 
Q 1594 3097 1305 2825 
Q 1016 2553 972 2059 
L 3022 2063 
z
" id="DejaVuSans-65" transform="scale(0.015625)"/>
       <path d="M 3513 2113 
L 3513 0 
L 2938 0 
L 2938 2094 
Q 2938 2591 2744 2837 
Q 2550 3084 2163 3084 
Q 1697 3084 1428 2787 
Q 1159 2491 1159 1978 
L 1159 0 
L 581 0 
L 581 3500 
L 1159 3500 
L 1159 2956 
Q 1366 3272 1645 3428 
Q 1925 3584 2291 3584 
Q 2894 3584 3203 3211 
Q 3513 2838 3513 2113 
z
" id="DejaVuSans-6e" transform="scale(0.015625)"/>
       <path d="M 2906 1791 
Q 2906 2416 2648 2759 
Q 2391 3103 1925 3103 
Q 1463 3103 1205 2759 
Q 947 2416 947 1791 
Q 947 1169 1205 825 
Q 1463 481 1925 481 
Q 2391 481 2648 825 
Q 2906 1169 2906 1791 
z
M 3481 434 
Q 3481 -459 3084 -895 
Q 2688 -1331 1869 -1331 
Q 1566 -1331 1297 -1286 
Q 1028 -1241 775 -1147 
L 775 -588 
Q 1028 -725 1275 -790 
Q 1522 -856 1778 -856 
Q 2344 -856 2625 -561 
Q 2906 -266 2906 331 
L 2906 616 
Q 2728 306 2450 153 
Q 2172 0 1784 0 
Q 1141 0 747 490 
Q 353 981 353 1791 
Q 353 2603 747 3093 
Q 1141 3584 1784 3584 
Q 2172 3584 2450 3431 
Q 2728 3278 2906 2969 
L 2906 3500 
L 3481 3500 
L 3481 434 
z
" id="DejaVuSans-67" transform="scale(0.015625)"/>
       <path d="M 3513 2113 
L 3513 0 
L 2938 0 
L 2938 2094 
Q 2938 2591 2744 2837 
Q 2550 3084 2163 3084 
Q 1697 3084 1428 2787 
Q 1159 2491 1159 1978 
L 1159 0 
L 581 0 
L 581 4863 
L 1159 4863 
L 1159 2956 
Q 1366 3272 1645 3428 
Q 1925 3584 2291 3584 
Q 2894 3584 3203 3211 
Q 3513 2838 3513 2113 
z
" id="DejaVuSans-68" transform="scale(0.015625)"/>
       <path d="M 1984 4856 
Q 1566 4138 1362 3434 
Q 1159 2731 1159 2009 
Q 1159 1288 1364 580 
Q 1569 -128 1984 -844 
L 1484 -844 
Q 1016 -109 783 600 
Q 550 1309 550 2009 
Q 550 2706 781 3412 
Q 1013 4119 1484 4856 
L 1984 4856 
z
" id="DejaVuSans-28" transform="scale(0.015625)"/>
       <path d="M 3116 1747 
Q 3116 2381 2855 2742 
Q 2594 3103 2138 3103 
Q 1681 3103 1420 2742 
Q 1159 2381 1159 1747 
Q 1159 1113 1420 752 
Q 1681 391 2138 391 
Q 2594 391 2855 752 
Q 3116 1113 3116 1747 
z
M 1159 2969 
Q 1341 3281 1617 3432 
Q 1894 3584 2278 3584 
Q 2916 3584 3314 3078 
Q 3713 2572 3713 1747 
Q 3713 922 3314 415 
Q 2916 -91 2278 -91 
Q 1894 -91 1617 61 
Q 1341 213 1159 525 
L 1159 0 
L 581 0 
L 581 4863 
L 1159 4863 
L 1159 2969 
z
" id="DejaVuSans-62" transform="scale(0.015625)"/>
       <path d="M 2059 -325 
Q 1816 -950 1584 -1140 
Q 1353 -1331 966 -1331 
L 506 -1331 
L 506 -850 
L 844 -850 
Q 1081 -850 1212 -737 
Q 1344 -625 1503 -206 
L 1606 56 
L 191 3500 
L 800 3500 
L 1894 763 
L 2988 3500 
L 3597 3500 
L 2059 -325 
z
" id="DejaVuSans-79" transform="scale(0.015625)"/>
       <path d="M 2834 3397 
L 2834 2853 
Q 2591 2978 2328 3040 
Q 2066 3103 1784 3103 
Q 1356 3103 1142 2972 
Q 928 2841 928 2578 
Q 928 2378 1081 2264 
Q 1234 2150 1697 2047 
L 1894 2003 
Q 2506 1872 2764 1633 
Q 3022 1394 3022 966 
Q 3022 478 2636 193 
Q 2250 -91 1575 -91 
Q 1294 -91 989 -36 
Q 684 19 347 128 
L 347 722 
Q 666 556 975 473 
Q 1284 391 1588 391 
Q 1994 391 2212 530 
Q 2431 669 2431 922 
Q 2431 1156 2273 1281 
Q 2116 1406 1581 1522 
L 1381 1569 
Q 847 1681 609 1914 
Q 372 2147 372 2553 
Q 372 3047 722 3315 
Q 1072 3584 1716 3584 
Q 2034 3584 2315 3537 
Q 2597 3491 2834 3397 
z
" id="DejaVuSans-73" transform="scale(0.015625)"/>
       <path d="M 513 4856 
L 1013 4856 
Q 1481 4119 1714 3412 
Q 1947 2706 1947 2009 
Q 1947 1309 1714 600 
Q 1481 -109 1013 -844 
L 513 -844 
Q 928 -128 1133 580 
Q 1338 1288 1338 2009 
Q 1338 2731 1133 3434 
Q 928 4138 513 4856 
z
" id="DejaVuSans-29" transform="scale(0.015625)"/>
      </defs>
      <use xlink:href="#DejaVuSans-44"/>
      <use x="77.001953" xlink:href="#DejaVuSans-61"/>
      <use x="138.28125" xlink:href="#DejaVuSans-74"/>
      <use x="177.490234" xlink:href="#DejaVuSans-61"/>
      <use x="238.769531" xlink:href="#DejaVuSans-20"/>
      <use x="270.556641" xlink:href="#DejaVuSans-6c"/>
      <use x="298.339844" xlink:href="#DejaVuSans-65"/>
      <use x="359.863281" xlink:href="#DejaVuSans-6e"/>
      <use x="423.242188" xlink:href="#DejaVuSans-67"/>
      <use x="486.71875" xlink:href="#DejaVuSans-74"/>
      <use x="525.927734" xlink:href="#DejaVuSans-68"/>
      <use x="589.306641" xlink:href="#DejaVuSans-20"/>
      <use x="621.09375" xlink:href="#DejaVuSans-28"/>
      <use x="660.107422" xlink:href="#DejaVuSans-62"/>
      <use x="723.583984" xlink:href="#DejaVuSans-79"/>
      <use x="782.763672" xlink:href="#DejaVuSans-74"/>
      <use x="821.972656" xlink:href="#DejaVuSans-65"/>
      <use x="883.496094" xlink:href="#DejaVuSans-73"/>
      <use x="935.595703" xlink:href="#DejaVuSans-29"/>
     </g>
    </g>
   </g>
   <g id="matplotlib.axis_2">
    <g id="ytick_1">
     <g id="line2d_7">
      <defs>
       <path d="M 0 0 
L -3.5 0 
" id="m286254d3ea" style="stroke:#000000;stroke-width:0.8;"/>
      </defs>
      <g>
       <use style="stroke:#000000;stroke-width:0.8;" x="144" xlink:href="#m286254d3ea" y="571.108715"/>
      </g>
     </g>
     <g id="text_8">
      <!-- 0 -->
      <g transform="translate(130.6375 574.907934)scale(0.1 -0.1)">
       <use xlink:href="#DejaVuSans-30"/>
      </g>
     </g>
    </g>
    <g id="ytick_2">
     <g id="line2d_8">
      <g>
       <use style="stroke:#000000;stroke-width:0.8;" x="144" xlink:href="#m286254d3ea" y="501.088963"/>
      </g>
     </g>
     <g id="text_9">
      <!-- 50 -->
      <g transform="translate(124.275 504.888181)scale(0.1 -0.1)">
       <defs>
        <path d="M 691 4666 
L 3169 4666 
L 3169 4134 
L 1269 4134 
L 1269 2991 
Q 1406 3038 1543 3061 
Q 1681 3084 1819 3084 
Q 2600 3084 3056 2656 
Q 3513 2228 3513 1497 
Q 3513 744 3044 326 
Q 2575 -91 1722 -91 
Q 1428 -91 1123 -41 
Q 819 9 494 109 
L 494 744 
Q 775 591 1075 516 
Q 1375 441 1709 441 
Q 2250 441 2565 725 
Q 2881 1009 2881 1497 
Q 2881 1984 2565 2268 
Q 2250 2553 1709 2553 
Q 1456 2553 1204 2497 
Q 953 2441 691 2322 
L 691 4666 
z
" id="DejaVuSans-35" transform="scale(0.015625)"/>
       </defs>
       <use xlink:href="#DejaVuSans-35"/>
       <use x="63.623047" xlink:href="#DejaVuSans-30"/>
      </g>
     </g>
    </g>
    <g id="ytick_3">
     <g id="line2d_9">
      <g>
       <use style="stroke:#000000;stroke-width:0.8;" x="144" xlink:href="#m286254d3ea" y="431.06921"/>
      </g>
     </g>
     <g id="text_10">
      <!-- 100 -->
      <g transform="translate(117.9125 434.868429)scale(0.1 -0.1)">
       <use xlink:href="#DejaVuSans-31"/>
       <use x="63.623047" xlink:href="#DejaVuSans-30"/>
       <use x="127.246094" xlink:href="#DejaVuSans-30"/>
      </g>
     </g>
    </g>
    <g id="ytick_4">
     <g id="line2d_10">
      <g>
       <use style="stroke:#000000;stroke-width:0.8;" x="144" xlink:href="#m286254d3ea" y="361.049458"/>
      </g>
     </g>
     <g id="text_11">
      <!-- 150 -->
      <g transform="translate(117.9125 364.848676)scale(0.1 -0.1)">
       <use xlink:href="#DejaVuSans-31"/>
       <use x="63.623047" xlink:href="#DejaVuSans-35"/>
       <use x="127.246094" xlink:href="#DejaVuSans-30"/>
      </g>
     </g>
    </g>
    <g id="ytick_5">
     <g id="line2d_11">
      <g>
       <use style="stroke:#000000;stroke-width:0.8;" x="144" xlink:href="#m286254d3ea" y="291.029705"/>
      </g>
     </g>
     <g id="text_12">
      <!-- 200 -->
      <g transform="translate(117.9125 294.828924)scale(0.1 -0.1)">
       <use xlink:href="#DejaVuSans-32"/>
       <use x="63.623047" xlink:href="#DejaVuSans-30"/>
       <use x="127.246094" xlink:href="#DejaVuSans-30"/>
      </g>
     </g>
    </g>
    <g id="ytick_6">
     <g id="line2d_12">
      <g>
       <use style="stroke:#000000;stroke-width:0.8;" x="144" xlink:href="#m286254d3ea" y="221.009953"/>
      </g>
     </g>
     <g id="text_13">
      <!-- 250 -->
      <g transform="translate(117.9125 224.809171)scale(0.1 -0.1)">
       <use xlink:href="#DejaVuSans-32"/>
       <use x="63.623047" xlink:href="#DejaVuSans-35"/>
       <use x="127.246094" xlink:href="#DejaVuSans-30"/>
      </g>
     </g>
    </g>
    <g id="ytick_7">
     <g id="line2d_13">
      <g>
       <use style="stroke:#000000;stroke-width:0.8;" x="144" xlink:href="#m286254d3ea" y="150.9902"/>
      </g>
     </g>
     <g id="text_14">
      <!-- 300 -->
      <g transform="translate(117.9125 154.789419)scale(0.1 -0.1)">
       <defs>
        <path d="M 2597 2516 
Q 3050 2419 3304 2112 
Q 3559 1806 3559 1356 
Q 3559 666 3084 287 
Q 2609 -91 1734 -91 
Q 1441 -91 1130 -33 
Q 819 25 488 141 
L 488 750 
Q 750 597 1062 519 
Q 1375 441 1716 441 
Q 2309 441 2620 675 
Q 2931 909 2931 1356 
Q 2931 1769 2642 2001 
Q 2353 2234 1838 2234 
L 1294 2234 
L 1294 2753 
L 1863 2753 
Q 2328 2753 2575 2939 
Q 2822 3125 2822 3475 
Q 2822 3834 2567 4026 
Q 2313 4219 1838 4219 
Q 1578 4219 1281 4162 
Q 984 4106 628 3988 
L 628 4550 
Q 988 4650 1302 4700 
Q 1616 4750 1894 4750 
Q 2613 4750 3031 4423 
Q 3450 4097 3450 3541 
Q 3450 3153 3228 2886 
Q 3006 2619 2597 2516 
z
" id="DejaVuSans-33" transform="scale(0.015625)"/>
       </defs>
       <use xlink:href="#DejaVuSans-33"/>
       <use x="63.623047" xlink:href="#DejaVuSans-30"/>
       <use x="127.246094" xlink:href="#DejaVuSans-30"/>
      </g>
     </g>
    </g>
    <g id="ytick_8">
     <g id="line2d_14">
      <g>
       <use style="stroke:#000000;stroke-width:0.8;" x="144" xlink:href="#m286254d3ea" y="80.970448"/>
      </g>
     </g>
     <g id="text_15">
      <!-- 350 -->
      <g transform="translate(117.9125 84.769666)scale(0.1 -0.1)">
       <use xlink:href="#DejaVuSans-33"/>
       <use x="63.623047" xlink:href="#DejaVuSans-35"/>
       <use x="127.246094" xlink:href="#DejaVuSans-30"/>
      </g>
     </g>
    </g>
    <g id="text_16">
     <!-- Processor ticks -->
     <g transform="translate(111.832812 364.507187)rotate(-90)scale(0.1 -0.1)">
      <defs>
       <path d="M 1259 4147 
L 1259 2394 
L 2053 2394 
Q 2494 2394 2734 2622 
Q 2975 2850 2975 3272 
Q 2975 3691 2734 3919 
Q 2494 4147 2053 4147 
L 1259 4147 
z
M 628 4666 
L 2053 4666 
Q 2838 4666 3239 4311 
Q 3641 3956 3641 3272 
Q 3641 2581 3239 2228 
Q 2838 1875 2053 1875 
L 1259 1875 
L 1259 0 
L 628 0 
L 628 4666 
z
" id="DejaVuSans-50" transform="scale(0.015625)"/>
       <path d="M 2631 2963 
Q 2534 3019 2420 3045 
Q 2306 3072 2169 3072 
Q 1681 3072 1420 2755 
Q 1159 2438 1159 1844 
L 1159 0 
L 581 0 
L 581 3500 
L 1159 3500 
L 1159 2956 
Q 1341 3275 1631 3429 
Q 1922 3584 2338 3584 
Q 2397 3584 2469 3576 
Q 2541 3569 2628 3553 
L 2631 2963 
z
" id="DejaVuSans-72" transform="scale(0.015625)"/>
       <path d="M 1959 3097 
Q 1497 3097 1228 2736 
Q 959 2375 959 1747 
Q 959 1119 1226 758 
Q 1494 397 1959 397 
Q 2419 397 2687 759 
Q 2956 1122 2956 1747 
Q 2956 2369 2687 2733 
Q 2419 3097 1959 3097 
z
M 1959 3584 
Q 2709 3584 3137 3096 
Q 3566 2609 3566 1747 
Q 3566 888 3137 398 
Q 2709 -91 1959 -91 
Q 1206 -91 779 398 
Q 353 888 353 1747 
Q 353 2609 779 3096 
Q 1206 3584 1959 3584 
z
" id="DejaVuSans-6f" transform="scale(0.015625)"/>
       <path d="M 3122 3366 
L 3122 2828 
Q 2878 2963 2633 3030 
Q 2388 3097 2138 3097 
Q 1578 3097 1268 2742 
Q 959 2388 959 1747 
Q 959 1106 1268 751 
Q 1578 397 2138 397 
Q 2388 397 2633 464 
Q 2878 531 3122 666 
L 3122 134 
Q 2881 22 2623 -34 
Q 2366 -91 2075 -91 
Q 1284 -91 818 406 
Q 353 903 353 1747 
Q 353 2603 823 3093 
Q 1294 3584 2113 3584 
Q 2378 3584 2631 3529 
Q 2884 3475 3122 3366 
z
" id="DejaVuSans-63" transform="scale(0.015625)"/>
       <path d="M 603 3500 
L 1178 3500 
L 1178 0 
L 603 0 
L 603 3500 
z
M 603 4863 
L 1178 4863 
L 1178 4134 
L 603 4134 
L 603 4863 
z
" id="DejaVuSans-69" transform="scale(0.015625)"/>
       <path d="M 581 4863 
L 1159 4863 
L 1159 1991 
L 2875 3500 
L 3609 3500 
L 1753 1863 
L 3688 0 
L 2938 0 
L 1159 1709 
L 1159 0 
L 581 0 
L 581 4863 
z
" id="DejaVuSans-6b" transform="scale(0.015625)"/>
      </defs>
      <use xlink:href="#DejaVuSans-50"/>
      <use x="58.552734" xlink:href="#DejaVuSans-72"/>
      <use x="97.416016" xlink:href="#DejaVuSans-6f"/>
      <use x="158.597656" xlink:href="#DejaVuSans-63"/>
      <use x="213.578125" xlink:href="#DejaVuSans-65"/>
      <use x="275.101562" xlink:href="#DejaVuSans-73"/>
      <use x="327.201172" xlink:href="#DejaVuSans-73"/>
      <use x="379.300781" xlink:href="#DejaVuSans-6f"/>
      <use x="440.482422" xlink:href="#DejaVuSans-72"/>
      <use x="481.595703" xlink:href="#DejaVuSans-20"/>
      <use x="513.382812" xlink:href="#DejaVuSans-74"/>
      <use x="552.591797" xlink:href="#DejaVuSans-69"/>
      <use x="580.375" xlink:href="#DejaVuSans-63"/>
      <use x="635.355469" xlink:href="#DejaVuSans-6b"/>
      <use x="693.265625" xlink:href="#DejaVuSans-73"/>
     </g>
    </g>
   </g>
   <g id="line2d_15">
    <path clip-path="url(#p3a059c00df)" d="M 184.581818 535.739217 
L 192.863822 553.534878 
L 201.145826 553.796471 
L 209.427829 551.295506 
L 217.709833 550.403734 
L 225.991837 550.249971 
L 234.27384 549.740507 
L 242.555844 548.613329 
L 250.837848 547.103003 
L 259.119852 547.626051 
L 267.401855 545.632588 
L 275.683859 544.99905 
L 283.965863 545.115983 
L 292.247866 543.963177 
L 300.52987 543.186518 
L 308.811874 544.707767 
L 317.093878 543.519812 
L 325.375881 542.595832 
L 333.657885 541.929384 
L 341.939889 541.856283 
L 350.221892 541.970975 
L 358.503896 540.719162 
L 366.7859 539.157582 
L 375.067904 539.319607 
L 383.349907 538.651479 
L 391.631911 537.531303 
L 399.913915 535.241097 
L 408.195918 536.841468 
L 416.477922 536.733638 
L 424.759926 536.165638 
L 433.041929 535.635868 
L 441.323933 535.072909 
L 449.605937 534.305213 
L 457.887941 533.65711 
L 466.169944 532.599952 
L 474.451948 532.652887 
L 482.733952 532.368046 
L 491.015955 530.504541 
L 499.297959 529.967769 
L 507.579963 528.925595 
L 515.861967 526.667318 
L 524.14397 525.162174 
L 532.425974 525.944854 
L 540.707978 524.381593 
L 548.989981 524.487463 
L 557.271985 522.294865 
L 565.553989 520.560896 
L 573.835993 518.823846 
L 582.117996 520.074678 
L 590.4 518.736041 
L 598.682004 517.909948 
L 606.964007 516.74776 
L 615.246011 510.073897 
L 623.528015 503.585027 
L 631.810019 500.276873 
L 640.092022 498.409727 
L 648.374026 498.170259 
L 656.65603 495.776424 
L 664.938033 499.608465 
L 673.220037 495.811854 
L 681.502041 494.66493 
L 689.784045 492.665726 
L 698.066048 491.82899 
L 706.348052 490.719457 
L 714.630056 491.915535 
L 722.912059 490.802361 
L 731.194063 489.967305 
L 739.476067 484.80741 
L 747.758071 483.25003 
L 756.040074 480.785475 
L 764.322078 484.871828 
L 772.604082 485.756457 
L 780.886085 481.109526 
L 789.168089 482.062635 
L 797.450093 482.373523 
L 805.732096 480.971868 
L 814.0141 480.740522 
L 822.296104 475.673193 
L 830.578108 479.368275 
L 838.860111 474.56422 
L 847.142115 457.339921 
L 855.424119 464.350579 
L 863.706122 453.868062 
L 871.988126 455.252912 
L 880.27013 461.903248 
L 888.552134 461.545727 
L 896.834137 463.052833 
L 905.116141 428.471757 
L 913.398145 445.840577 
L 921.680148 434.752109 
L 929.962152 444.205616 
L 938.244156 459.920709 
L 946.52616 452.708675 
L 954.808163 421.424549 
L 963.090167 454.28846 
L 971.372171 447.633643 
L 979.654174 408.873789 
L 987.936178 443.149718 
L 996.218182 442.540406 
" style="fill:none;stroke:#1f77b4;stroke-linecap:square;stroke-width:1.5;"/>
   </g>
   <g id="line2d_16">
    <path clip-path="url(#p3a059c00df)" d="M 184.581818 552.993205 
L 192.863822 553.749698 
L 201.145826 553.293729 
L 209.427829 554.04 
L 217.709833 552.486262 
L 225.991837 553.240094 
L 234.27384 553.942112 
L 242.555844 554.022215 
L 250.837848 553.675897 
L 259.119852 553.587812 
L 267.401855 552.713406 
L 275.683859 551.618997 
L 283.965863 552.998806 
L 292.247866 552.010267 
L 300.52987 551.038953 
L 308.811874 552.328857 
L 317.093878 550.561979 
L 325.375881 550.17729 
L 333.657885 547.563173 
L 341.939889 549.126434 
L 350.221892 550.108671 
L 358.503896 547.064912 
L 366.7859 546.166139 
L 375.067904 548.314485 
L 383.349907 548.135514 
L 391.631911 546.054807 
L 399.913915 544.241576 
L 408.195918 545.916168 
L 416.477922 546.009715 
L 424.759926 545.974285 
L 433.041929 545.452357 
L 441.323933 546.485429 
L 449.605937 545.575732 
L 457.887941 545.419728 
L 466.169944 544.190882 
L 474.451948 545.683003 
L 482.733952 544.203485 
L 491.015955 543.026033 
L 499.297959 542.764439 
L 507.579963 544.056864 
L 515.861967 543.030794 
L 524.14397 542.457893 
L 532.425974 541.558139 
L 540.707978 542.48324 
L 548.989981 541.316851 
L 557.271985 540.324391 
L 565.553989 539.911414 
L 573.835993 541.622837 
L 582.117996 540.795764 
L 590.4 540.083663 
L 598.682004 538.897248 
L 606.964007 540.103969 
L 615.246011 535.25188 
L 623.528015 528.689769 
L 631.810019 530.045491 
L 640.092022 529.604647 
L 648.374026 529.242225 
L 656.65603 529.414473 
L 664.938033 529.444162 
L 673.220037 529.407191 
L 681.502041 528.866639 
L 689.784045 527.765228 
L 698.066048 526.137829 
L 706.348052 529.770454 
L 714.630056 529.139716 
L 722.912059 527.951761 
L 731.194063 526.490448 
L 739.476067 526.748681 
L 747.758071 527.7382 
L 756.040074 519.382043 
L 764.322078 524.199402 
L 772.604082 527.036322 
L 780.886085 525.215389 
L 789.168089 525.447574 
L 797.450093 523.617398 
L 805.732096 524.703964 
L 814.0141 524.357367 
L 822.296104 523.570485 
L 830.578108 523.283684 
L 838.860111 523.257636 
L 847.142115 498.692467 
L 855.424119 520.912395 
L 863.706122 513.55598 
L 871.988126 515.702225 
L 880.27013 517.366034 
L 888.552134 515.663294 
L 896.834137 516.985827 
L 905.116141 500.97469 
L 913.398145 513.430924 
L 921.680148 511.150241 
L 929.962152 510.737264 
L 938.244156 516.759243 
L 946.52616 513.731589 
L 954.808163 509.425654 
L 963.090167 518.363676 
L 971.372171 497.35789 
L 979.654174 510.146158 
L 987.936178 515.212087 
L 996.218182 513.013326 
" style="fill:none;stroke:#ff7f0e;stroke-linecap:square;stroke-width:1.5;"/>
   </g>
   <g id="line2d_17">
    <path clip-path="url(#p3a059c00df)" d="M 184.581818 553.779106 
L 192.863822 553.953456 
L 201.145826 553.9683 
L 209.427829 548.771294 
L 217.709833 546.272149 
L 225.991837 549.657044 
L 234.27384 548.709536 
L 242.555844 544.015692 
L 250.837848 543.815436 
L 259.119852 543.861229 
L 267.401855 544.084031 
L 275.683859 536.13875 
L 283.965863 536.477226 
L 292.247866 536.932074 
L 300.52987 536.992151 
L 308.811874 524.697943 
L 317.093878 526.10646 
L 325.375881 525.891079 
L 333.657885 525.525016 
L 341.939889 513.375048 
L 350.221892 515.124002 
L 358.503896 514.667333 
L 366.7859 515.544961 
L 375.067904 502.874326 
L 383.349907 503.106232 
L 391.631911 496.597335 
L 399.913915 498.869196 
L 408.195918 491.644838 
L 416.477922 491.47217 
L 424.759926 491.57916 
L 433.041929 490.986373 
L 441.323933 478.99605 
L 449.605937 480.120287 
L 457.887941 480.694029 
L 466.169944 480.314942 
L 474.451948 468.663936 
L 482.733952 468.337083 
L 491.015955 468.027176 
L 499.297959 466.945511 
L 507.579963 455.521508 
L 515.861967 454.660965 
L 524.14397 454.67707 
L 532.425974 454.683372 
L 540.707978 443.349134 
L 548.989981 441.813321 
L 557.271985 440.665557 
L 565.553989 441.117605 
L 573.835993 428.139724 
L 582.117996 429.373612 
L 590.4 429.184698 
L 598.682004 429.116639 
L 606.964007 410.010489 
L 615.246011 383.46026 
L 623.528015 379.966554 
L 631.810019 383.798455 
L 640.092022 362.667754 
L 648.374026 358.166604 
L 656.65603 365.218574 
L 664.938033 361.895296 
L 673.220037 352.460135 
L 681.502041 347.642916 
L 689.784045 348.046369 
L 698.066048 342.69574 
L 706.348052 338.51108 
L 714.630056 340.03709 
L 722.912059 340.110471 
L 731.194063 329.235143 
L 739.476067 319.721419 
L 747.758071 316.303195 
L 756.040074 304.342421 
L 764.322078 325.899822 
L 772.604082 307.192785 
L 780.886085 302.681692 
L 789.168089 309.325306 
L 797.450093 308.713894 
L 805.732096 288.769047 
L 814.0141 288.298095 
L 822.296104 292.693795 
L 830.578108 291.564656 
L 838.860111 255.842539 
L 847.142115 204.082818 
L 855.424119 260.177742 
L 863.706122 242.844072 
L 871.988126 231.354531 
L 880.27013 232.666001 
L 888.552134 228.842642 
L 896.834137 231.793975 
L 905.116141 152.590712 
L 913.398145 184.777812 
L 921.680148 210.280266 
L 929.962152 235.682872 
L 938.244156 203.864356 
L 946.52616 144.934612 
L 954.808163 205.399469 
L 963.090167 246.514367 
L 971.372171 100.44 
L 979.654174 193.083135 
L 987.936178 209.646307 
L 996.218182 175.176003 
" style="fill:none;stroke:#2ca02c;stroke-linecap:square;stroke-width:1.5;"/>
   </g>
   <g id="patch_3">
    <path d="M 144 576.72 
L 144 77.76 
" style="fill:none;stroke:#000000;stroke-linecap:square;stroke-linejoin:miter;stroke-width:0.8;"/>
   </g>
   <g id="patch_4">
    <path d="M 1036.8 576.72 
L 1036.8 77.76 
" style="fill:none;stroke:#000000;stroke-linecap:square;stroke-linejoin:miter;stroke-width:0.8;"/>
   </g>
   <g id="patch_5">
    <path d="M 144 576.72 
L 1036.8 576.72 
" style="fill:none;stroke:#000000;stroke-linecap:square;stroke-linejoin:miter;stroke-width:0.8;"/>
   </g>
   <g id="patch_6">
    <path d="M 144 77.76 
L 1036.8 77.76 
" style="fill:none;stroke:#000000;stroke-linecap:square;stroke-linejoin:miter;stroke-width:0.8;"/>
   </g>
   <g id="text_17">
    <!-- Hash algorithms benchmark -->
    <g transform="translate(505.519687 71.76)scale(0.12 -0.12)">
     <defs>
      <path d="M 628 4666 
L 1259 4666 
L 1259 2753 
L 3553 2753 
L 3553 4666 
L 4184 4666 
L 4184 0 
L 3553 0 
L 3553 2222 
L 1259 2222 
L 1259 0 
L 628 0 
L 628 4666 
z
" id="DejaVuSans-48" transform="scale(0.015625)"/>
      <path d="M 3328 2828 
Q 3544 3216 3844 3400 
Q 4144 3584 4550 3584 
Q 5097 3584 5394 3201 
Q 5691 2819 5691 2113 
L 5691 0 
L 5113 0 
L 5113 2094 
Q 5113 2597 4934 2840 
Q 4756 3084 4391 3084 
Q 3944 3084 3684 2787 
Q 3425 2491 3425 1978 
L 3425 0 
L 2847 0 
L 2847 2094 
Q 2847 2600 2669 2842 
Q 2491 3084 2119 3084 
Q 1678 3084 1418 2786 
Q 1159 2488 1159 1978 
L 1159 0 
L 581 0 
L 581 3500 
L 1159 3500 
L 1159 2956 
Q 1356 3278 1631 3431 
Q 1906 3584 2284 3584 
Q 2666 3584 2933 3390 
Q 3200 3197 3328 2828 
z
" id="DejaVuSans-6d" transform="scale(0.015625)"/>
     </defs>
     <use xlink:href="#DejaVuSans-48"/>
     <use x="75.195312" xlink:href="#DejaVuSans-61"/>
     <use x="136.474609" xlink:href="#DejaVuSans-73"/>
     <use x="188.574219" xlink:href="#DejaVuSans-68"/>
     <use x="251.953125" xlink:href="#DejaVuSans-20"/>
     <use x="283.740234" xlink:href="#DejaVuSans-61"/>
     <use x="345.019531" xlink:href="#DejaVuSans-6c"/>
     <use x="372.802734" xlink:href="#DejaVuSans-67"/>
     <use x="436.279297" xlink:href="#DejaVuSans-6f"/>
     <use x="497.460938" xlink:href="#DejaVuSans-72"/>
     <use x="538.574219" xlink:href="#DejaVuSans-69"/>
     <use x="566.357422" xlink:href="#DejaVuSans-74"/>
     <use x="605.566406" xlink:href="#DejaVuSans-68"/>
     <use x="668.945312" xlink:href="#DejaVuSans-6d"/>
     <use x="766.357422" xlink:href="#DejaVuSans-73"/>
     <use x="818.457031" xlink:href="#DejaVuSans-20"/>
     <use x="850.244141" xlink:href="#DejaVuSans-62"/>
     <use x="913.720703" xlink:href="#DejaVuSans-65"/>
     <use x="975.244141" xlink:href="#DejaVuSans-6e"/>
     <use x="1038.623047" xlink:href="#DejaVuSans-63"/>
     <use x="1093.603516" xlink:href="#DejaVuSans-68"/>
     <use x="1156.982422" xlink:href="#DejaVuSans-6d"/>
     <use x="1254.394531" xlink:href="#DejaVuSans-61"/>
     <use x="1315.673828" xlink:href="#DejaVuSans-72"/>
     <use x="1356.787109" xlink:href="#DejaVuSans-6b"/>
    </g>
   </g>
   <g id="legend_1">
    <g id="patch_7">
     <path d="M 151 140.992188 
L 281.640625 140.992188 
Q 283.640625 140.992188 283.640625 138.992188 
L 283.640625 84.76 
Q 283.640625 82.76 281.640625 82.76 
L 151 82.76 
Q 149 82.76 149 84.76 
L 149 138.992188 
Q 149 140.992188 151 140.992188 
z
" style="fill:#ffffff;opacity:0.8;stroke:#cccccc;stroke-linejoin:miter;"/>
    </g>
    <g id="line2d_18">
     <path d="M 153 90.858438 
L 173 90.858438 
" style="fill:none;stroke:#1f77b4;stroke-linecap:square;stroke-width:1.5;"/>
    </g>
    <g id="line2d_19"/>
    <g id="text_18">
     <!-- MurmurHash3 32 -->
     <g transform="translate(181 94.358438)scale(0.1 -0.1)">
      <defs>
       <path d="M 628 4666 
L 1569 4666 
L 2759 1491 
L 3956 4666 
L 4897 4666 
L 4897 0 
L 4281 0 
L 4281 4097 
L 3078 897 
L 2444 897 
L 1241 4097 
L 1241 0 
L 628 0 
L 628 4666 
z
" id="DejaVuSans-4d" transform="scale(0.015625)"/>
       <path d="M 544 1381 
L 544 3500 
L 1119 3500 
L 1119 1403 
Q 1119 906 1312 657 
Q 1506 409 1894 409 
Q 2359 409 2629 706 
Q 2900 1003 2900 1516 
L 2900 3500 
L 3475 3500 
L 3475 0 
L 2900 0 
L 2900 538 
Q 2691 219 2414 64 
Q 2138 -91 1772 -91 
Q 1169 -91 856 284 
Q 544 659 544 1381 
z
M 1991 3584 
L 1991 3584 
z
" id="DejaVuSans-75" transform="scale(0.015625)"/>
      </defs>
      <use xlink:href="#DejaVuSans-4d"/>
      <use x="86.279297" xlink:href="#DejaVuSans-75"/>
      <use x="149.658203" xlink:href="#DejaVuSans-72"/>
      <use x="189.021484" xlink:href="#DejaVuSans-6d"/>
      <use x="286.433594" xlink:href="#DejaVuSans-75"/>
      <use x="349.8125" xlink:href="#DejaVuSans-72"/>
      <use x="390.925781" xlink:href="#DejaVuSans-48"/>
      <use x="466.121094" xlink:href="#DejaVuSans-61"/>
      <use x="527.400391" xlink:href="#DejaVuSans-73"/>
      <use x="579.5" xlink:href="#DejaVuSans-68"/>
      <use x="642.878906" xlink:href="#DejaVuSans-33"/>
      <use x="706.501953" xlink:href="#DejaVuSans-20"/>
      <use x="738.289062" xlink:href="#DejaVuSans-33"/>
      <use x="801.912109" xlink:href="#DejaVuSans-32"/>
     </g>
    </g>
    <g id="line2d_20">
     <path d="M 153 105.536563 
L 173 105.536563 
" style="fill:none;stroke:#ff7f0e;stroke-linecap:square;stroke-width:1.5;"/>
    </g>
    <g id="line2d_21"/>
    <g id="text_19">
     <!-- XXHash 32 -->
     <g transform="translate(181 109.036563)scale(0.1 -0.1)">
      <defs>
       <path d="M 403 4666 
L 1081 4666 
L 2241 2931 
L 3406 4666 
L 4084 4666 
L 2584 2425 
L 4184 0 
L 3506 0 
L 2194 1984 
L 872 0 
L 191 0 
L 1856 2491 
L 403 4666 
z
" id="DejaVuSans-58" transform="scale(0.015625)"/>
      </defs>
      <use xlink:href="#DejaVuSans-58"/>
      <use x="68.505859" xlink:href="#DejaVuSans-58"/>
      <use x="137.011719" xlink:href="#DejaVuSans-48"/>
      <use x="212.207031" xlink:href="#DejaVuSans-61"/>
      <use x="273.486328" xlink:href="#DejaVuSans-73"/>
      <use x="325.585938" xlink:href="#DejaVuSans-68"/>
      <use x="388.964844" xlink:href="#DejaVuSans-20"/>
      <use x="420.751953" xlink:href="#DejaVuSans-33"/>
      <use x="484.375" xlink:href="#DejaVuSans-32"/>
     </g>
    </g>
    <g id="line2d_22">
     <path d="M 153 126.853438 
L 173 126.853438 
" style="fill:none;stroke:#2ca02c;stroke-linecap:square;stroke-width:1.5;"/>
    </g>
    <g id="line2d_23"/>
    <g id="text_20">
     <!-- Polynomial Hash 32 -->
     <g transform="translate(181 123.714687)scale(0.1 -0.1)">
      <use xlink:href="#DejaVuSans-50"/>
      <use x="56.677734" xlink:href="#DejaVuSans-6f"/>
      <use x="117.859375" xlink:href="#DejaVuSans-6c"/>
      <use x="145.642578" xlink:href="#DejaVuSans-79"/>
      <use x="204.822266" xlink:href="#DejaVuSans-6e"/>
      <use x="268.201172" xlink:href="#DejaVuSans-6f"/>
      <use x="329.382812" xlink:href="#DejaVuSans-6d"/>
      <use x="426.794922" xlink:href="#DejaVuSans-69"/>
      <use x="454.578125" xlink:href="#DejaVuSans-61"/>
      <use x="515.857422" xlink:href="#DejaVuSans-6c"/>
      <use x="543.640625" xlink:href="#DejaVuSans-20"/>
      <use x="575.427734" xlink:href="#DejaVuSans-48"/>
      <use x="650.623047" xlink:href="#DejaVuSans-61"/>
      <use x="711.902344" xlink:href="#DejaVuSans-73"/>
      <use x="764.001953" xlink:href="#DejaVuSans-68"/>
      <use x="827.380859" xlink:href="#DejaVuSans-20"/>
      <use x="859.167969" xlink:href="#DejaVuSans-33"/>
      <use x="922.791016" xlink:href="#DejaVuSans-32"/>
     </g>
     <!--  -->
     <g transform="translate(181 134.9125)scale(0.1 -0.1)"/>
    </g>
   </g>
  </g>
 </g>
 <defs>
  <clipPath id="p3a059c00df">
   <rect height="498.96" width="892.8" x="144" y="77.76"/>
  </clipPath>
 </defs>
</svg>
